Coordinates
version=1
nRows=14
nColumns=36
inDegrees=yes

Units are S.I. units (second, meters, Newtons, ...)
If the header above contains a line with 'inDegrees', this indicates whether rotational values are in degrees (yes) or radians (no).

endheader
time	pelvis_tilt	pelvis_list	pelvis_rotation	pelvis_tx	pelvis_ty	pelvis_tz	hip_flexion_r	hip_adduction_r	hip_rotation_r	knee_angle_r	knee_angle_r_beta	ankle_angle_r	subtalar_angle_r	mtp_angle_r	hip_flexion_l	hip_adduction_l	hip_rotation_l	knee_angle_l	knee_angle_l_beta	ankle_angle_l	subtalar_angle_l	mtp_angle_l	lumbar_extension	lumbar_bending	lumbar_rotation	arm_flex_r	arm_add_r	arm_rot_r	elbow_flex_r	pro_sup_r	arm_flex_l	arm_add_l	arm_rot_l	elbow_flex_l	pro_sup_l
      0.64000000	     -3.51550253	     -1.06642682	     -2.82149840	      0.77372633	      0.88666431	     -0.24087207	     -4.02882630	      0.69852436	     -2.29859014	     39.16255869	      0.68351559	     -4.74290637	      0.48225587	     -6.74529904	     27.58222904	      3.55434917	      2.62103799	     19.02255951	      0.33200630	     -0.21877650	     -9.97621843	     -6.74529904	     -5.11976197	      1.97677888	      4.75158302	      8.46646730	    -14.76774389	     11.44459058	     51.92870604	    106.09993945	     -9.13303902	     -9.34493232	     -7.99269257	     36.31837491	    103.10033334
      0.65000000	     -3.30432821	     -0.63349271	     -2.32064408	      0.78606718	      0.88764003	     -0.24285019	     -2.63037807	     -0.49526352	     -3.56175476	     42.61739930	      0.74381394	     -7.63278516	      0.79337280	     -6.75504530	     27.06325012	      4.35816803	      2.91951454	     20.09947846	      0.35080208	      0.36432820	    -10.03144557	     -6.75504530	     -5.42050987	      1.33757385	      3.85539372	      7.93917972	    -14.34384162	     10.94454801	     51.57391755	    106.02381673	     -8.95690962	     -9.67392098	     -7.78391156	     36.51013090	    103.19290738
      0.66000000	     -3.06306994	     -0.18693981	     -1.85723736	      0.79810515	      0.88868136	     -0.24469016	     -1.09738330	     -1.68647699	     -4.57101300	     46.19216012	      0.80620528	    -10.47370139	      0.80276012	     -6.76329168	     26.43072608	      5.16098028	      3.23228579	     21.03479195	      0.36712638	      1.12651218	    -10.11496016	     -6.76329168	     -5.79542710	      0.71304406	      2.97619111	      7.44286107	    -13.91273150	     10.44758353	     51.21051873	    105.95109333	     -8.70504933	    -10.00871221	     -7.55473699	     36.71844381	    103.29091306
      0.67000000	     -2.89143138	      0.12371781	     -1.36672855	      0.80980951	      0.88970874	     -0.24631721	      0.60678930	     -2.55900030	     -5.26568745	     49.65434441	      0.86663180	    -13.93936796	     -0.62350409	     -6.78898015	     25.83845728	      5.81242645	      3.68052362	     21.91390300	      0.38246976	      1.98599598	     -9.93468361	     -6.78898015	     -6.14131017	      0.24600141	      2.16493474	      6.86485427	    -13.36275064	      9.40445436	     50.78646594	    105.86566464	     -8.40626032	    -10.44046185	     -6.95346513	     37.04359314	    103.55704041
      0.68000000	     -2.63162254	      0.57078354	     -0.96316154	      0.82137945	      0.89086236	     -0.24785239	      2.32151467	     -3.66406128	     -5.88065769	     53.15961556	      0.92781032	    -16.07990416	     -1.02245992	     -6.79707071	     24.95985393	      6.57446593	      3.97962897	     22.41107663	      0.39114708	      2.83730485	    -10.01746429	     -6.79707071	     -6.59727505	     -0.36705009	      1.39523538	      6.34891945	    -13.04222975	      9.10725105	     50.41494363	    105.84174122	     -7.96001756	    -10.81225383	     -6.72422752	     37.18004001	    103.64693217
      0.69000000	     -2.44209865	      0.88529727	     -0.58177511	      0.83264677	      0.89199698	     -0.24927944	      4.17593362	     -4.49387864	     -6.28057465	     56.47358838	      0.98565006	    -18.04718328	     -2.35301550	     -6.80757028	     24.07389521	      7.18505155	      4.37649174	     22.73593035	      0.39681684	      3.61009742	    -10.01381363	     -6.80757028	     -6.98008462	     -0.78521036	      0.62981761	      5.88618531	    -12.70381925	      8.64410644	     49.87275129	    105.82600300	     -7.55299417	    -11.19576237	     -6.29365324	     37.45866012	    103.79096306
      0.70000000	     -2.25350485	      1.08546252	     -0.24403978	      0.84364653	      0.89328067	     -0.25056989	      6.04906059	     -5.02918300	     -6.44555821	     59.48228755	      1.03816176	    -19.70757956	     -4.66846205	     -6.82513337	     23.11958841	      7.63827435	      4.73428702	     22.89953874	      0.39967235	      4.32729982	     -9.96342044	     -6.82513337	     -7.40644761	     -1.04904678	     -0.04489666	      5.42277837	    -12.43554135	      8.12437985	     49.27250918	    105.88740436	     -7.06247038	    -11.62514666	     -5.60705108	     37.72928313	    103.99950203
      0.71000000	     -1.99940826	      1.31542487	     -0.02300305	      0.85458698	      0.89474002	     -0.25174576	      7.87604801	     -5.61435916	     -6.52598370	     62.27522227	      1.08690767	    -19.93308899	     -6.03100501	     -6.83328954	     21.92417197	      8.06723614	      4.96074631	     22.74383363	      0.39695478	      5.07804254	     -9.99570073	     -6.83328954	     -7.86748765	     -1.31610562	     -0.63099496	      4.94035290	    -12.27285346	      8.01304585	     48.84671965	    105.93209315	     -6.46743336	    -11.91478715	     -5.29372774	     37.89245340	    104.09242035
      0.72000000	     -1.76930755	      1.44442104	      0.12940556	      0.86530165	      0.89628428	     -0.25281003	      9.74645338	     -5.95836880	     -6.43059522	     64.73718818	      1.12987708	    -19.52859723	     -7.60522271	     -6.83965472	     20.69956632	      8.35584542	      5.20556143	     22.46907631	      0.39215936	      5.71647789	     -9.96869687	     -6.83965472	     -8.32339024	     -1.46239578	     -1.16299961	      4.51016092	    -12.19635234	      7.94925230	     48.36596389	    105.96768050	     -5.88297671	    -12.19405985	     -4.96835114	     38.12872931	    104.18368341
      0.73000000	     -1.59485166	      1.50705075	      0.22051319	      0.87592275	      0.89787750	     -0.25376283	     11.66779234	     -6.16514000	     -6.31340379	     66.81940509	      1.16621862	    -18.63515533	     -9.35461615	     -6.84630083	     19.46033409	      8.52387608	      5.35644551	     22.01526090	      0.38423879	      6.33142180	     -9.89824725	     -6.84630083	     -8.69770079	     -1.53531281	     -1.60305558	      4.05404317	    -12.19311469	      7.96242428	     47.83919867	    106.01423136	     -5.31863913	    -12.46528969	     -4.58486581	     38.41588271	    104.28546970
      0.74000000	     -1.42919148	      1.50216964	      0.27123648	      0.88646835	      0.89956249	     -0.25467044	     13.56479588	     -6.21985721	     -6.12986249	     68.48466536	      1.19528290	    -17.48074117	    -10.92901201	     -6.85306766	     18.18928663	      8.58162251	      5.41688027	     21.46613377	      0.37465471	      6.88748987	     -9.74995192	     -6.85306766	     -9.04737877	     -1.50969940	     -1.99389921	      3.60814356	    -12.27195902	      8.05255473	     47.33384719	    106.06943646	     -4.73683489	    -12.70405184	     -4.18803464	     38.73639963	    104.38786028
      0.75000000	     -1.27326680	      1.47617557	      0.30482123	      0.89699272	      0.90127665	     -0.25550449	     15.41666026	     -6.19656761	     -5.93387313	     69.72970821	      1.21701299	    -16.16279382	    -12.33993826	     -6.87267161	     16.91899895	      8.56321323	      5.27300803	     20.89536791	      0.36469297	      7.54925310	     -9.21065464	     -6.87267161	     -9.35655258	     -1.45203611	     -2.34825388	      3.19521805	    -12.40969850	      8.32218584	     46.73613752	    106.25869763	     -4.17353794	    -13.06958453	     -3.33846011	     39.08331453	    104.57215236
      0.76000000	     -1.18850581	      1.39850684	      0.28219024	      0.90747033	      0.90298170	     -0.25615143	     17.30168477	     -6.00581611	     -5.61033862	     70.55205842	      1.23136571	    -14.92115867	    -13.23795664	     -6.87829845	     15.63781092	      8.48101681	      5.26298702	     20.13854256	      0.35148387	      8.01661791	     -8.96012412	     -6.87829845	     -9.58272298	     -1.35153151	     -2.63270203	      2.67368767	    -12.55076532	      8.43810052	     46.35054118	    106.29679427	     -3.58205903	    -13.24377143	     -3.21621719	     39.43026967	    104.62398105
      0.77000000	     -1.11991099	      1.34728892	      0.30375763	      0.91793320	      0.90463488	     -0.25679601	     19.10212929	     -5.82943956	     -5.35237970	     70.97742494	      1.23878976	    -13.59406443	    -13.94502245	     -6.88439157	     14.37702676	      8.41407506	      5.17027246	     19.36286687	      0.33794578	      8.46326186	     -8.55380522	     -6.88439157	     -9.77797854	     -1.28672174	     -2.93233210	      2.15274348	    -12.70686117	      8.56800179	     45.91864359	    106.33642927	     -3.02783228	    -13.44276917	     -3.02388091	     39.91870039	    104.69604951
